<?xml version="1.0" encoding="UTF-8" standalone="no"?><!DOCTYPE svg PUBLIC "-//W3C//DTD SVG 1.1//EN" "http://www.w3.org/Graphics/SVG/1.1/DTD/svg11.dtd"><svg width="100%" height="100%" viewBox="0 0 96 96" version="1.1" xmlns="http://www.w3.org/2000/svg" xmlns:xlink="http://www.w3.org/1999/xlink" xml:space="preserve" xmlns:serif="http://www.serif.com/" style="fill-rule:evenodd;clip-rule:evenodd;stroke-linejoin:round;stroke-miterlimit:1.41421;"><rect id="Loupe" x="0.117" y="0.563" width="94.444" height="94.444" style="fill:none;"/><clipPath id="_clip1"><rect x="0.117" y="0.563" width="94.444" height="94.444"/></clipPath><g clip-path="url(#_clip1)"><path d="M61.142,68.165c-10.405,7.958 -25.064,10.212 -37.422,5.159c-15.849,-6.48 -25.946,-24.705 -22.913,-41.667c3.028,-16.932 18.534,-30.69 36.456,-31.088c0.325,-0.005 0.65,-0.007 0.975,-0.006c17.253,0.164 33.435,13.371 36.812,30.398c2.099,10.582 -0.684,21.972 -7.232,30.524l25.46,25.46c2.817,2.956 0.046,9.34 -4.744,7.848c-0.508,-0.159 -0.989,-0.404 -1.416,-0.722c-0.183,-0.137 -0.353,-0.29 -0.518,-0.448l-25.458,-25.458Zm-23.319,-58.158c-12.995,0.201 -25.535,10.141 -27.779,23.662c-1.98,11.927 3.732,25.266 17.104,30.852c12.034,5.027 27.268,0.72 34.716,-10.918c10.178,-15.904 0.942,-41.818 -21.671,-43.513c-0.76,-0.057 -0.996,-0.083 -2.37,-0.083Z" style="fill-rule:nonzero;"/></g></svg>